# Blender 5.0.0
# www.blender.org
mtllib 42.mtl
o Cube
v 0.232406 -1.216630 0.074963
v 0.232406 -0.745504 1.784243
v -0.227475 -0.745504 1.784243
v -0.227475 -1.216630 0.074963
v 0.232407 1.119982 0.074964
v 0.232406 1.119982 0.543959
v -0.227475 1.119982 0.543958
v -0.227475 1.119982 0.074963
v 0.232406 -0.340316 1.784243
v -0.227475 -0.340316 1.784243
v 0.232407 -0.305193 0.074964
v 0.232407 -0.294496 1.239082
v -0.227475 -0.305193 0.074963
v -0.227475 -0.294496 1.239082
v 0.232406 -1.222569 0.438340
v 0.232406 -0.745504 0.418876
v -0.227475 -0.745504 0.418876
v -0.227475 -1.222569 0.438339
v -0.227403 -0.731178 -0.157378
v -0.227403 -0.731178 -1.096475
v 0.223704 -0.731178 -1.096475
v 0.223704 -0.731178 -0.157378
v -0.227403 1.119377 -0.157378
v -0.227403 1.119377 -1.096475
v 0.223704 1.119377 -1.096475
v 0.223704 1.119377 -0.157378
v -0.227403 -0.129772 -0.157378
v -0.227403 0.551492 -0.674368
v -0.227403 1.104268 -0.650354
v -0.227403 0.507336 -0.157378
v 0.223704 0.507336 -0.157378
v 0.223704 1.104269 -0.650354
v 0.223704 0.551492 -0.674368
v 0.223704 -0.129772 -0.157378
v -0.227403 0.634134 -1.096475
v -0.227403 -0.066768 -0.660280
v -0.227403 -0.684649 -0.669174
v -0.227403 -0.075523 -1.096475
v 0.223704 0.634134 -1.096475
v 0.223704 -0.066768 -0.660280
v 0.223704 -0.684649 -0.669174
v 0.223704 -0.075523 -1.096475
vn -0.0000 -1.0000 -0.0000
vn -0.0000 1.0000 -0.0000
vn -1.0000 -0.0000 -0.0000
vn -0.0000 0.6474 0.7622
vn -0.0000 -0.0000 -1.0000
vn -0.0000 -0.0000 1.0000
vn -0.0000 -0.6355 -0.7721
vn -0.0000 1.0000 -0.0092
vn -0.0000 -0.9999 -0.0163
vn -0.0000 0.0408 0.9992
vn 1.0000 -0.0000 -0.0000
vn -0.0000 -0.6368 -0.7711
vn -0.0000 -0.0434 0.9991
vn -0.0000 0.6045 0.7966
vn -0.0000 -0.5284 -0.8490
vn -0.0000 0.0144 -0.9999
vn -0.0000 0.5743 0.8187
vt 1.428515 -1.297765
vt 1.438437 -0.152812
vt 0.797175 -0.147255
vt 0.787254 -1.292209
vt -1.742904 -1.479609
vt -1.101641 -1.485166
vt -1.098189 -1.086796
vt -1.739451 -1.081239
vt 3.002143 1.287176
vt 3.682340 0.448853
vt 3.689735 1.302287
vt -1.716329 1.587121
vt -1.075068 1.581565
vt 2.940773 2.602986
vt 1.317388 2.602136
vt 1.791622 1.984008
vt -1.723943 0.708446
vt -1.715146 1.723859
vt -2.356407 1.729417
vt -2.365206 0.714003
vt -1.712446 2.035192
vt -1.071185 2.029636
vt 2.358138 -1.238400
vt 2.380252 1.313634
vt 1.738989 1.319191
vt 1.716875 -1.232845
vt -2.374189 -0.322545
vt -2.382655 -1.299531
vt -1.741392 -1.305088
vt -1.732926 -0.328102
vt -1.712447 2.035192
vt -2.353709 2.040749
vt 0.160404 -1.035459
vt -0.383684 -1.030744
vt -0.389241 -1.672006
vt 0.154847 -1.676720
vt 0.167772 -0.185258
vt 0.796798 -0.190708
vt 0.803128 0.539744
vt 0.174101 0.545194
vt -1.785218 2.827745
vt -2.374805 2.717609
vt -2.380668 2.040983
vt -1.758411 2.056659
vt -1.082892 0.678537
vt -0.453865 0.673086
vt -0.448102 1.338142
vt -1.077129 1.343593
vt 0.180925 1.332691
vt 0.809952 1.327241
vt 0.804087 0.650424
vt 0.797175 -0.147255
vt 1.426202 -0.152706
vt 1.433114 0.644973
vt 1.438979 1.321790
vt 0.809952 1.327241
vt 0.796799 -0.190708
vt 0.158427 -1.263682
vt 0.787454 -1.269134
vt -1.098345 -1.104849
vt -0.469319 -1.110298
vt -0.464198 -0.519417
vt -1.093225 -0.513966
vt -0.468623 -1.030008
vt 0.160404 -1.035459
vt 0.165088 -0.494859
vt -0.463939 -0.489409
vt 0.175024 0.651781
vt -0.454002 0.657231
vt 0.180925 1.332691
vt -0.448102 1.338142
vt -1.723944 0.708446
vt -2.352971 0.713897
vt -2.361953 -0.322651
vt -1.732926 -0.328102
vt -1.071185 2.029636
vt -1.063790 2.883070
vt 2.954286 -1.207076
vt 2.365814 -0.352543
vt 2.357892 -1.266793
vt -2.358309 4.621410
vt -2.366231 3.707160
vt -1.763039 4.551367
vt -0.305739 2.631118
vt 1.334607 4.589410
vt 0.680637 4.595077
vt -1.048825 4.610063
vt 1.334608 4.589410
vt 1.988577 4.583744
vt 2.961979 0.516671
vt 2.974153 -0.345606
vt 3.674642 -0.439535
vt 3.700395 2.532508
vt 3.695500 1.967510
vt -1.758103 3.689682
vt -1.056092 3.771459
vt 1.317386 2.602136
vt 0.832513 1.992319
vt 0.799607 1.327331
vt 1.306375 1.331222
vt -1.071365 2.008817
vt -1.066469 2.573814
vt 1.812997 1.318550
vt 1.306375 1.331222
vt 2.374389 0.637007
vt 3.667375 -1.278140
vt 2.380251 1.313634
s 0
usemtl Material.002
f 16/1/1 2/2/1 3/3/1 17/4/1
f 5/5/2 8/6/2 7/7/2 6/8/2
f 29/9/3 30/10/3 23/11/3
f 9/12/4 6/8/4 7/7/4 10/13/4
f 14/14/3 13/15/3 17/16/3
f 11/17/5 1/18/5 4/19/5 13/20/5
f 2/21/6 9/12/6 10/13/6 3/22/6
f 5/23/7 12/24/7 14/25/7 8/26/7
f 12/27/8 11/28/8 13/29/8 14/30/8
f 1/18/9 15/31/9 18/32/9 4/19/9
f 15/33/10 16/34/10 17/35/10 18/36/10
f 38/37/5 42/38/5 21/39/5 20/40/5
f 33/41/11 39/42/11 25/43/11 32/44/11
f 34/45/6 27/46/6 19/47/6 22/48/6
f 19/49/1 20/40/1 21/39/1 22/50/1
f 26/51/2 25/52/2 24/53/2 23/54/2
f 26/51/6 23/54/6 30/55/6 31/56/6
f 31/57/12 30/37/12 29/58/12 32/59/12
f 32/60/13 29/61/13 28/62/13 33/63/13
f 33/63/14 28/62/14 27/46/14 34/45/14
f 24/64/5 25/65/5 39/66/5 35/67/5
f 35/67/15 39/66/15 40/68/15 36/69/15
f 36/69/16 40/68/16 41/70/16 37/71/16
f 37/72/17 41/73/17 42/74/17 38/75/17
f 26/76/11 31/77/11 32/44/11
f 37/78/3 38/79/3 20/80/3
f 21/81/11 42/82/11 41/83/11
f 12/84/11 5/85/11 6/86/11
f 25/43/11 26/76/11 32/44/11
f 22/87/11 21/81/11 41/83/11
f 8/88/3 14/14/3 7/89/3
f 28/90/3 36/91/3 27/92/3
f 10/93/3 14/14/3 17/16/3 3/94/3
f 33/41/11 40/95/11 39/42/11
f 40/95/11 33/41/11 34/96/11
f 11/97/11 16/98/11 15/99/11 1/100/11
f 14/14/3 10/93/3 7/89/3
f 2/101/11 16/98/11 12/84/11 9/102/11
f 11/97/11 12/84/11 16/98/11
f 40/95/11 34/96/11 22/87/11 41/83/11
f 12/84/11 6/86/11 9/102/11
f 18/103/3 17/16/3 13/15/3 4/104/3
f 36/91/3 28/90/3 35/105/3
f 37/78/3 20/80/3 19/106/3
f 29/9/3 23/11/3 24/107/3
f 19/106/3 27/92/3 36/91/3 37/78/3
f 24/107/3 35/105/3 28/90/3 29/9/3
